#!OML:ASF F:\VICON\USERDATA\INSTALL\rory3\rory3.ASF
:FULLY-SPECIFIED
:DEGREES
746
root 3.60723 16.4945 0.349674 9.95668 5.99947 5.94431
lowerback -5.08297 1.51484 -1.09283
upperback 0.992119 2.17691 -2.16554
thorax 3.91921 1.08346 -1.43944
lowerneck 0.262556 9.3774 2.3482
upperneck 58.0147 13.6502 6.89748
head 26.2407 6.40714 6.3895
rclavicle 7.30534e-015 5.1684e-015
rhumerus -43.1333 3.62611 -87.8545
rradius 59.242
rwrist -47.9664
rhand -7.67591 -47.8603
rfingers 7.12502
rthumb 18.2207 -77.027
lclavicle 7.30534e-015 5.1684e-015
lhumerus -21.6857 -0.187539 85.9724
lradius 37.6242
lwrist 71.981
lhand -41.7326 -15.6654
lfingers 7.12502
lthumb -14.6375 13.798
rfemur -52.1274 15.9123 3.34775
rtibia 76.3343
rfoot 4.91499 14.6008
rtoes -32.9404
lfemur -28.538 -7.17343 -33.6376
ltibia 44.4833
lfoot -21.272 12.6635
ltoes 8.3883
747
root 3.61522 16.5396 0.351955 9.95751 5.97917 5.93092
lowerback -4.93634 1.53785 -1.02705
upperback 0.879318 2.19792 -2.19495
thorax 3.72364 1.09619 -1.51028
lowerneck 0.395965 9.37863 2.41998
upperneck 58.1097 13.6581 6.9125
head 26.3233 6.42303 6.39746
rclavicle -3.83654e-014 1.45113e-014
rhumerus -43.2214 3.66255 -87.9182
rradius 59.1411
rwrist -47.8879
rhand -7.08905 -48.7444
rfingers 7.12502
rthumb 18.7852 -77.8573
lclavicle -3.83654e-014 1.45113e-014
lhumerus -21.8433 -0.178958 85.9149
lradius 37.5648
lwrist 72.0728
lhand -41.7638 -15.677
lfingers 7.12502
lthumb -14.6676 13.7842
rfemur -52.4502 16.2419 3.07754
rtibia 76.2558
rfoot 7.49145 13.6851
rtoes -25.905
lfemur -28.4579 -6.94829 -33.6493
ltibia 44.4637
lfoot -21.3785 12.5247
ltoes 8.15469
748
root 3.61568 16.5405 0.353217 9.97518 5.94714 5.97125
lowerback -4.90696 1.54997 -1.06231
upperback 0.849057 2.21555 -2.2157
thorax 3.67562 1.10453 -1.51171
lowerneck 0.490294 9.36149 2.51602
upperneck 58.0763 13.6853 6.75579
head 26.2947 6.44714 6.27636
rclavicle 4.77083e-015 -2.98177e-015
rhumerus -43.2006 3.7503 -87.9759
rradius 59.0801
rwrist -47.8369
rhand -6.90121 -48.1224
rfingers 7.12502
rthumb 18.9658 -77.2177
lclavicle 4.77083e-015 -2.98177e-015
lhumerus -21.8035 -0.094109 85.8967
lradius 37.4795
lwrist 72.0885
lhand -42.0365 -15.4338
lfingers 7.12502
lthumb -14.9304 14.0081
rfemur -52.485 16.3828 2.92083
rtibia 76.2051
rfoot 7.81498 13.8582
rtoes -24.9304
lfemur -28.457 -6.7179 -33.7202
ltibia 44.4176
lfoot -21.3739 12.3912
ltoes 7.69461
749
root 3.61071 16.5056 0.354931 9.94349 5.90031 6.00386
lowerback -5.01931 1.56465 -1.07897
upperback 0.954843 2.24285 -2.23916
thorax 3.84952 1.11771 -1.51993
lowerneck 0.527632 9.34609 2.72224
upperneck 57.9952 13.7837 6.40998
head 26.303 6.5008 6.0413
rclavicle 1.52567e-014 -1.74931e-014
rhumerus -43.0315 3.84197 -88.0416
rradius 59.0594
rwrist -47.8059
rhand -7.0602 -47.9083
rfingers 7.12502
rthumb 18.8129 -77.0185
lclavicle 1.52567e-014 -1.74931e-014
lhumerus -21.6074 0.00303237 85.8666
lradius 37.3794
lwrist 71.9984
lhand -42.089 -15.5915
lfingers 7.12502
lthumb -14.9809 13.8466
rfemur -52.1232 16.4047 2.97542
rtibia 76.143
rfoot 6.31335 14.3368
rtoes -28.6872
lfemur -28.4485 -6.65074 -33.7662
ltibia 44.3687
lfoot -21.3281 12.3252
ltoes 7.83026
750
root 3.61746 16.5494 0.358234 9.93177 5.85608 6.01164
lowerback -5.10265 1.59392 -1.05428
upperback 1.01641 2.28507 -2.26182
thorax 3.96324 1.13934 -1.55053
lowerneck 0.571836 9.32802 2.82861
upperneck 57.9669 13.8129 6.24946
head 26.312 6.52246 5.92729
rclavicle -3.18055e-015 -2.62396e-014
rhumerus -42.9358 3.88572 -88.0825
rradius 59.05
rwrist -47.8236
rhand -7.25665 -47.9955
rfingers 7.12502
rthumb 18.624 -77.124
lclavicle -3.18055e-015 -2.62396e-014
lhumerus -21.535 0.00743885 85.8364
lradius 37.3066
lwrist 71.851
lhand -41.8164 -16.0835
lfingers 7.12502
lthumb -14.7183 13.374
rfemur -52.3095 16.6762 2.7858
rtibia 76.047
rfoot 7.9759 13.3359
rtoes -23.527
lfemur -28.3202 -6.60057 -33.776
ltibia 44.3056
lfoot -21.4151 12.293
ltoes 7.92245
